<svg xmlns="http://www.w3.org/2000/svg" version="1.1" xmlns:xlink="http://www.w3.org/1999/xlink" xmlns:svgjs="http://svgjs.dev/svgjs" width="1500" height="1500" viewBox="0 0 1500 1500"><rect width="1500" height="1500" fill="#cb0003"></rect><g transform="matrix(0.6666666666666666,0,0,0.6666666666666666,249.39393939393938,435.99032258064517)"><svg viewBox="0 0 396 248" data-background-color="#cb0003" preserveAspectRatio="xMidYMid meet" height="939" width="1500" xmlns="http://www.w3.org/2000/svg" xmlns:xlink="http://www.w3.org/1999/xlink"><g id="tight-bounds" transform="matrix(1,0,0,1,0.2400000000000091,0.4000000000000057)"><svg viewBox="0 0 395.52 247.2" height="247.2" width="395.52"><g><svg></svg></g><g><svg viewBox="0 0 395.52 247.2" height="247.2" width="395.52"><g transform="matrix(1,0,0,1,137.7943626168224,47.215199999999996)"><svg viewBox="0 0 119.93127476635516 152.7696" height="152.7696" width="119.93127476635516"><g><svg viewBox="0 0 119.93127476635516 152.7696" height="152.7696" width="119.93127476635516"><g><svg viewBox="0 0 119.93127476635516 152.7696" height="152.7696" width="119.93127476635516"><g><svg viewBox="0 0 119.93127476635516 152.7696" height="152.7696" width="119.93127476635516"><g id="textblocktransform"><svg viewBox="0 0 119.93127476635516 152.7696" height="152.7696" width="119.93127476635516" id="textblock"><g><svg viewBox="0 0 119.93127476635516 152.7696" height="152.7696" width="119.93127476635516"><g transform="matrix(1,0,0,1,0,0)"><svg width="119.93127476635516" viewBox="1.75 -31.5 25.2 32.1" height="152.7696" data-palette-color="#d4dcf7"><path d="M4.8-1.6L4.8-1.6 4.8-30Q4.8-30.6 4.1-30.6L4.1-30.6 1.75-30.6 1.75-31.5 11.95-31.5 11.95-30.6 9.6-30.6Q8.9-30.6 8.9-30L8.9-30 8.9-1.6Q8.9-0.9 9.6-0.9L9.6-0.9 11.95-0.9 11.95 0 1.75 0 1.75-0.9 4.1-0.9Q4.8-0.9 4.8-1.6ZM20.6-8.75L20.6-8.75 21.75-4.15Q22.5-1.05 24.15-1.05L24.15-1.05Q25-1.05 25.48-1.68 25.95-2.3 25.95-3.18 25.95-4.05 25.8-4.8L25.8-4.8 26.75-4.95Q26.95-4.2 26.95-3.3L26.95-3.3Q26.95-1.5 25.88-0.45 24.8 0.6 23.1 0.6L23.1 0.6Q18.9 0.6 17.6-4.75L17.6-4.75 16.45-9.35Q15.6-12.6 14.1-13.88 12.6-15.15 9.85-15.15L9.85-15.15 9.85-16.25 21.65-30.6 19.15-30.6 19.15-31.5 25.95-31.5 25.95-30.6 24.6-30.6Q23.8-30.6 23.2-29.9L23.2-29.9 12-16.35Q15.85-16.3 17.8-14.25 19.75-12.2 20.6-8.75Z" opacity="1" transform="matrix(1,0,0,1,0,0)" fill="#d4dcf7" class="wordmark-text-0" data-fill-palette-color="primary" id="text-0"></path></svg></g></svg></g></svg></g></svg></g></svg></g></svg></g></svg></g><g><path d="M183.566 0c30.402 0 58.24 10.976 79.768 29.183l-11.147 0c-19.26-14.022-42.974-22.294-68.621-22.295-25.647 0-49.361 8.272-68.621 22.295l-11.148 0c21.528-18.206 49.366-29.183 79.769-29.183zM183.566 247.2c-30.402 0-58.24-10.976-79.769-29.183l11.148 0c19.26 14.022 42.974 22.294 68.621 22.295 25.647 0 49.361-8.272 68.621-22.295l11.147 0c-21.528 18.206-49.366 29.183-79.768 29.183z" fill="#d4dcf7" stroke="transparent" data-fill-palette-color="tertiary"></path></g></svg></g><defs></defs></svg><rect width="395.52" height="247.2" fill="none" stroke="none" visibility="hidden"></rect></g></svg></g></svg> 